# Alias OBJ Model File
# Exported from SketchUp, (c) 2000-2012 Trimble Navigation Limited
# File units = centimeters

mtllib puerta.mtl

g Mesh1 Model

usemtl FrontColor
v 0.2 0 -3.75
vt 1.47638 0
vn 1 0 -0
v 0.2 1.75 -3.75
vt 1.47638 0.688976
v 0.2 1.75 -0
vt 0 0.688976
v 0.2 0 -0
vt 0 0
f 1/1/1 2/2/1 3/3/1 4/4/1 

vt -0.0787402 0.688976
vn 0 0 -1
vt -0.0787402 0
v -0.35 0 -3.75
vt 0.137795 0
v -0.35 1.75 -3.75
vt 0.137795 0.688976
f 2/5/2 1/6/2 5/7/2 6/8/2 

vt -0.0787402 1.47638
vn 0 -1 -0
v -0.35 0 -0
vt 0.137795 1.47638
f 1/9/3 4/6/3 7/7/3 5/10/3 

vt 0.0787402 0
vn 0 0 1
vt 0.0787402 0.688976
v -0.35 1.75 -0
vt -0.137795 0.688976
vt -0.137795 0
f 4/11/4 3/12/4 8/13/4 7/14/4 

vn 0 1 -0
vt 0.0787402 1.47638
vt -0.137795 1.47638
f 3/11/5 2/15/5 6/16/5 8/14/5 

vt -1.47638 0.688976
vn -1 0 -0
vt -1.47638 0
f 6/17/6 5/18/6 7/4/6 8/3/6 

